TITLE ""
FILE "Disc6Track42.mp3" MP3
  TRACK 01 AUDIO
    TITLE "Disc6Track42_01"
    INDEX 01 00:00:00
  TRACK 02 AUDIO
    TITLE "Disc6Track42_02"
    INDEX 01 00:01:12
  TRACK 03 AUDIO
    TITLE "Disc6Track42_03"
    INDEX 01 00:02:25
  TRACK 04 AUDIO
    TITLE "Disc6Track42_04"
    INDEX 01 00:03:48
  TRACK 05 AUDIO
    TITLE "Disc6Track42_05"
    INDEX 01 00:06:19
  TRACK 06 AUDIO
    TITLE "Disc6Track42_06"
    INDEX 01 00:06:50
  TRACK 07 AUDIO
    TITLE "Disc6Track42_07"
    INDEX 01 00:08:02
  TRACK 08 AUDIO
    TITLE "Disc6Track42_08"
    INDEX 01 00:09:19
  TRACK 09 AUDIO
    TITLE "Disc6Track42_09"
    INDEX 01 00:10:46
  TRACK 10 AUDIO
    TITLE "Disc6Track42_10"
    INDEX 01 00:15:33
  TRACK 11 AUDIO
    TITLE "Disc6Track42_11"
    INDEX 01 00:15:65
  TRACK 12 AUDIO
    TITLE "Disc6Track42_12"
    INDEX 01 00:17:11
  TRACK 13 AUDIO
    TITLE "Disc6Track42_13"
    INDEX 01 00:18:04
  TRACK 14 AUDIO
    TITLE "Disc6Track42_14"
    INDEX 01 00:19:27
  TRACK 15 AUDIO
    TITLE "Disc6Track42_15"
    INDEX 01 00:19:64
  TRACK 16 AUDIO
    TITLE "Disc6Track42_16"
    INDEX 01 00:21:24
  TRACK 17 AUDIO
    TITLE "Disc6Track42_17"
    INDEX 01 00:22:28
  TRACK 18 AUDIO
    TITLE "Disc6Track42_18"
    INDEX 01 00:23:58
  TRACK 19 AUDIO
    TITLE "Disc6Track42_19"
    INDEX 01 00:29:28
  TRACK 20 AUDIO
    TITLE "Disc6Track42_20"
    INDEX 01 00:29:57
  TRACK 21 AUDIO
    TITLE "Disc6Track42_21"
    INDEX 01 00:31:01
  TRACK 22 AUDIO
    TITLE "Disc6Track42_22"
    INDEX 01 00:32:12
  TRACK 23 AUDIO
    TITLE "Disc6Track42_23"
    INDEX 01 00:33:31
  TRACK 24 AUDIO
    TITLE "Disc6Track42_24"
    INDEX 01 00:33:70
  TRACK 25 AUDIO
    TITLE "Disc6Track42_25"
    INDEX 01 00:35:26
  TRACK 26 AUDIO
    TITLE "Disc6Track42_26"
    INDEX 01 00:37:70
  TRACK 27 AUDIO
    TITLE "Disc6Track42_27"
    INDEX 01 00:39:24
  TRACK 28 AUDIO
    TITLE "Disc6Track42_28"
    INDEX 01 00:43:47
  TRACK 29 AUDIO
    TITLE "Disc6Track42_29"
    INDEX 01 00:44:02
  TRACK 30 AUDIO
    TITLE "Disc6Track42_30"
    INDEX 01 00:45:29
  TRACK 31 AUDIO
    TITLE "Disc6Track42_31"
    INDEX 01 00:47:53
  TRACK 32 AUDIO
    TITLE "Disc6Track42_32"
    INDEX 01 00:49:03
  TRACK 33 AUDIO
    TITLE "Disc6Track42_33"
    INDEX 01 00:52:48
  TRACK 34 AUDIO
    TITLE "Disc6Track42_34"
    INDEX 01 00:53:03
  TRACK 35 AUDIO
    TITLE "Disc6Track42_35"
    INDEX 01 00:54:41
  TRACK 36 AUDIO
    TITLE "Disc6Track42_36"
    INDEX 01 00:55:52
  TRACK 37 AUDIO
    TITLE "Disc6Track42_37"
    INDEX 01 00:57:16
  TRACK 38 AUDIO
    TITLE "Disc6Track42_38"
    INDEX 01 01:03:17
  TRACK 39 AUDIO
    TITLE "Disc6Track42_39"
    INDEX 01 01:03:48
  TRACK 40 AUDIO
    TITLE "Disc6Track42_40"
    INDEX 01 01:05:22
  TRACK 41 AUDIO
    TITLE "Disc6Track42_41"
    INDEX 01 01:06:17
  TRACK 42 AUDIO
    TITLE "Disc6Track42_42"
    INDEX 01 01:07:69
